<?xml version="1.0" standalone="no"?>
<!DOCTYPE svg PUBLIC "-//W3C//DTD SVG 20010904//EN"
 "http://www.w3.org/TR/2001/REC-SVG-20010904/DTD/svg10.dtd">
<svg version="1.0" xmlns="http://www.w3.org/2000/svg"
 width="980.000000pt" height="984.000000pt" viewBox="0 0 980.000000 984.000000"
 preserveAspectRatio="xMidYMid meet">

<g transform="translate(0.000000,984.000000) scale(0.100000,-0.100000)"
fill="#000000" stroke="none">
<path d="M4657 9819 c-1086 -115 -1989 -962 -2253 -2114 -85 -371 -98 -820
-33 -1194 102 -591 364 -1111 768 -1525 147 -150 289 -267 454 -373 l117 -77
-122 -33 c-973 -266 -1878 -863 -2514 -1659 -634 -794 -995 -1718 -1069 -2741
l-7 -93 4902 0 4902 0 -7 88 c-51 680 -216 1285 -509 1870 -615 1228 -1712
2140 -3033 2522 l-163 47 78 48 c324 203 647 528 856 860 172 273 312 621 380
940 52 247 60 341 60 640 0 299 -8 393 -60 640 -153 725 -590 1378 -1184 1768
-233 152 -568 293 -827 346 -226 47 -522 63 -736 40z m623 -494 c636 -133
1173 -560 1470 -1170 113 -231 186 -461 225 -705 22 -141 31 -486 16 -631 -59
-564 -288 -1055 -671 -1440 -318 -320 -681 -509 -1125 -585 -138 -24 -452 -24
-590 0 -454 78 -836 280 -1156 612 -425 441 -652 1022 -651 1664 1 330 48 590
159 879 269 702 836 1213 1515 1365 176 40 237 45 468 41 185 -3 233 -7 340
-30z m70 -5130 c551 -57 1051 -205 1545 -454 432 -219 790 -477 1125 -811 575
-574 969 -1259 1170 -2035 31 -118 90 -389 90 -411 0 -2 -1971 -4 -4380 -4
-3497 0 -4380 3 -4380 13 0 26 60 302 94 428 239 906 778 1733 1511 2320 735
588 1599 917 2555 973 130 7 519 -4 670 -19z"/>
</g>
</svg>
