<?xml version="1.0" standalone="no"?>
<!DOCTYPE svg PUBLIC "-//W3C//DTD SVG 20010904//EN"
 "http://www.w3.org/TR/2001/REC-SVG-20010904/DTD/svg10.dtd">
<svg version="1.0" xmlns="http://www.w3.org/2000/svg"
 width="343.000000pt" height="273.000000pt" viewBox="0 0 343.000000 273.000000"
 preserveAspectRatio="xMidYMid meet">

<g transform="translate(0.000000,273.000000) scale(0.100000,-0.100000)"
fill="#000000" stroke="none">
<path d="M440 2548 c1 -7 -2 -474 -5 -1037 -3 -563 -3 -1038 1 -1057 l6 -34
184 0 184 0 0 1070 0 1070 -185 0 c-142 0 -185 -3 -185 -12z"/>
<path d="M1892 1233 l3 -808 188 -3 187 -2 0 810 0 810 -190 0 -190 0 2 -807z"/>
<path d="M1160 1050 l0 -630 188 2 187 3 3 628 2 627 -190 0 -190 0 0 -630z"/>
<path d="M2620 865 l0 -445 185 0 185 0 0 445 0 445 -185 0 -185 0 0 -445z"/>
<path d="M110 235 l0 -35 1605 0 1605 0 0 35 0 35 -1605 0 -1605 0 0 -35z"/>
</g>
</svg>
